<svg xmlns="http://www.w3.org/2000/svg" xml:space="preserve" id="Layer_1" x="0" y="0" style="enable-background:new 0 0 30 30" version="1.1" viewBox="0 0 30 30">
  <style>
    .st0,.st1,.st2{fill:none;stroke:#6c3db7;stroke-width:4;stroke-linecap:round;stroke-linejoin:round;stroke-miterlimit:10}.st1,.st2{stroke:#1f992a}.st2{stroke:#6a83ba}.st11,.st12,.st15,.st16,.st17,.st18,.st19,.st3,.st4,.st6,.st7,.st8,.st9{fill:#8a8aff;stroke:#8a8aff;stroke-width:2;stroke-linecap:round;stroke-linejoin:round;stroke-miterlimit:10}.st11,.st12,.st15,.st16,.st17,.st18,.st19,.st4,.st6,.st7,.st8,.st9{fill:#6c3db7;stroke:#6c3db7}.st11,.st12,.st15,.st16,.st17,.st18,.st19,.st6,.st7,.st8,.st9{fill:#f2bb41;stroke:#f2bb41}.st11,.st12,.st15,.st16,.st17,.st18,.st19,.st7,.st8,.st9{fill:#e08838;stroke:#e08838}.st11,.st12,.st15,.st16,.st17,.st18,.st19,.st8,.st9{fill:#1f992a;stroke:#1f992a}.st11,.st12,.st15,.st16,.st17,.st18,.st19,.st9{fill:#5ec11e;stroke:#5ec11e}.st11,.st12,.st15,.st16,.st17,.st18,.st19{fill:#ff5093;stroke:#ff5093}.st12,.st15,.st16,.st17,.st18,.st19{fill:#b7257f;stroke:#b7257f}.st15,.st16,.st17,.st18,.st19{fill:#edd977;stroke:#edd977}.st16,.st17,.st18,.st19{fill:#8c43ff;stroke:#8c43ff}.st17,.st18,.st19{fill:#5252ba;stroke:#5252ba}.st18,.st19{fill:none;stroke:#e3faff;stroke-width:4}.st19{fill:#354c75;stroke:#354c75;stroke-width:2}
  </style>
  <path d="M24 26H6c-2.2 0-4-1.8-4-4V8c0-2.2 1.8-4 4-4h18c2.2 0 4 1.8 4 4v14c0 2.2-1.8 4-4 4z" style="fill:#a576ff;stroke:#a576ff;stroke-width:2;stroke-linecap:round;stroke-linejoin:round;stroke-miterlimit:10"/>
  <path d="M24 26H6c-2.2 0-4-1.8-4-4V8c0-2.2 1.8-4 4-4h18c2.2 0 4 1.8 4 4v14c0 2.2-1.8 4-4 4z" style="fill:#6ebaff;stroke:#6ebaff;stroke-width:2;stroke-linecap:round;stroke-linejoin:round;stroke-miterlimit:10"/>
  <path d="M6 26h18c2.2 0 4-1.8 4-4v-7l-4-4-10.4 9.6L9 16l-7 6.4c.3 2 1.9 3.6 4 3.6z" style="fill:#5189e5;stroke:#5189e5;stroke-width:2;stroke-linecap:round;stroke-linejoin:round;stroke-miterlimit:10"/>
  <circle cx="7" cy="10" r="2" style="fill:#e3faff;stroke:#e3faff;stroke-width:2;stroke-linecap:round;stroke-linejoin:round;stroke-miterlimit:10"/>
</svg>
